# xmcd
#
# Track frame offsets:
#	150
#	16073
#	31146
#	47943
#	63967
#	81747
#	97650
#	116406
#	136012
#	149653
#	163887
#
# Disc length: 2388 seconds
#
# Revision: 2
# Processed by: cddbd v1.5.2PL0 Copyright (c) Steve Scherf et al.
# Submitted via: EZCDAudioConverter 7.1.5.1
#
DISCID=8e09520b
DTITLE=SONGHOY BLUES - Music In Exile
DYEAR=2015
DGENRE=Blues
TTITLE0=Soubour
TTITLE1=Irganda
TTITLE2=Al Hassidi Terei
TTITLE3=Sekou Oumarou
TTITLE4=Nick
TTITLE5=Ai Tchere Bele
TTITLE6=Wayei
TTITLE7=Petit Metier
TTITLE8=Jolie
TTITLE9=Desert Melodie
TTITLE10=Mali
EXTD=
EXTT0=
EXTT1=
EXTT2=
EXTT3=
EXTT4=
EXTT5=
EXTT6=
EXTT7=
EXTT8=
EXTT9=
EXTT10=
PLAYORDER=
